<svg xmlns="http://www.w3.org/2000/svg" width="160" height="160" viewBox="0 0 160 160"><defs><linearGradient id="g" x2=".2" y2="1"><stop stop-color="#edff9d"/><stop offset=".5" stop-color="#7cff7b"/><stop offset="1" stop-color="#17b77a"/></linearGradient></defs><g stroke="#073e43" stroke-width="7" stroke-linejoin="round"><path d="M48 110 24 92 74 25Q80 17 86 25L136 92 112 110 80 67Z" fill="#07575a" transform="translate(0 8)"/><path d="M48 110 24 92 74 25Q80 17 86 25L136 92 112 110 80 67Z" fill="url(#g)"/><path d="M54 137 33 121 75 82Q80 77 85 82L127 121 106 137 80 109Z" fill="url(#g)"/></g><path d="m44 79 32-43q4-5 8 0l15 19" fill="none" stroke="#fffed3" stroke-width="7" stroke-linecap="round"/><path d="m13 47 9-10m116 1 9 10M15 120l6 4" stroke="#bbffc3" stroke-width="5" stroke-linecap="round"/></svg>
